<!DOCTYPE svg PUBLIC "-//W3C//DTD SVG 1.1//EN" "http://www.w3.org/Graphics/SVG/1.1/DTD/svg11.dtd">
<!-- Uploaded to: SVG Repo, www.svgrepo.com, Transformed by: SVG Repo Mixer Tools -->
<svg fill="#ffffff" height="800px" width="800px" version="1.1" id="Layer_1" xmlns="http://www.w3.org/2000/svg" xmlns:xlink="http://www.w3.org/1999/xlink" viewBox="-51.2 -51.2 614.40 614.40" xml:space="preserve" stroke="#ffffff">
<g id="SVGRepo_bgCarrier" stroke-width="0">
<rect x="-51.2" y="-51.2" width="614.40" height="614.40" rx="307.2" fill="#000000" strokewidth="0"/>
</g>
<g id="SVGRepo_tracerCarrier" stroke-linecap="round" stroke-linejoin="round"/>
<g id="SVGRepo_iconCarrier"> <g> <g> <path d="M512,256c0-31.642-47.548-56.03-112.828-59.324c18.304-20.335,32.538-42.001,40.593-62.148 c10.47-26.163,9.489-47.309-2.748-59.546c-12.228-12.237-33.365-13.21-59.546-2.748c-20.147,8.055-41.822,22.298-62.148,40.602 C312.03,47.548,287.642,0,256,0c-31.957,0-56.533,48.461-59.443,114.739c-20.292-18.253-41.924-32.452-62.029-40.499 c-26.18-10.462-47.317-9.489-59.546,2.748c-12.237,12.237-13.218,33.382-2.748,59.546c7.808,19.524,21.436,40.474,38.921,60.254 C46.746,200.422,0,224.631,0,256c0,31.642,47.548,56.03,112.828,59.324c-18.304,20.335-32.538,42.001-40.593,62.148 c-10.47,26.163-9.489,47.309,2.748,59.546c6.613,6.622,15.846,9.941,27.068,9.941c9.515,0,20.463-2.389,32.478-7.194 c20.147-8.055,41.822-22.298,62.148-40.602C199.97,464.452,224.358,512,256,512s56.03-47.548,59.324-112.836 c20.326,18.304,42.001,32.546,62.148,40.602c12.015,4.804,22.963,7.194,32.478,7.194c11.221,0,20.446-3.319,27.068-9.941 c12.237-12.237,13.218-33.382,2.748-59.546c-8.055-20.147-22.289-41.813-40.593-62.148C464.452,312.03,512,287.642,512,256z M313.301,138.487c1.016-1.05,2.005-2.125,3.038-3.166c21.769-21.768,45.73-38.545,67.473-47.241 c19.149-7.654,34.142-8.03,41.139-1.033c6.997,6.997,6.622,21.999-1.033,41.139c-8.695,21.743-25.472,45.705-47.232,67.473 c-1.033,1.033-2.108,2.005-3.149,3.021c-0.051,0.043-0.119,0.06-0.162,0.102c-5.325,5.154-10.726,9.958-16.154,14.43 c-0.521,0.427-1.041,0.845-1.562,1.271c-1.997,1.613-3.994,3.157-5.999,4.676c-1.135,0.862-2.278,1.715-3.422,2.543 c-0.768,0.563-1.536,1.092-2.304,1.638c-0.094-0.247-0.213-0.469-0.307-0.708c-0.905-2.372-1.911-4.693-2.995-6.963 c-0.401-0.853-0.794-1.698-1.22-2.526c-0.947-1.835-1.98-3.618-3.038-5.376c-0.674-1.135-1.331-2.278-2.048-3.379 c-0.87-1.306-1.818-2.551-2.739-3.814c-1.016-1.391-1.997-2.79-3.089-4.122c-0.478-0.589-1.024-1.118-1.519-1.698 c-1.502-1.741-2.97-3.499-4.608-5.129c-1.553-1.562-3.234-2.953-4.89-4.395c-0.666-0.572-1.289-1.195-1.963-1.749 c-1.28-1.05-2.637-1.997-3.968-2.97c-1.314-0.973-2.62-1.954-3.985-2.859c-1.067-0.7-2.167-1.331-3.268-1.988 c-1.792-1.084-3.601-2.133-5.47-3.098c-0.811-0.41-1.638-0.794-2.466-1.186c-2.287-1.092-4.617-2.099-6.997-3.012 c-0.239-0.094-0.461-0.213-0.7-0.299c0.461-0.657,0.896-1.314,1.374-1.971c0.742-1.024,1.519-2.048,2.278-3.072 c1.587-2.099,3.191-4.19,4.873-6.281c0.401-0.503,0.811-0.998,1.212-1.493c4.582-5.598,9.506-11.145,14.805-16.623 C313.25,138.59,313.259,138.53,313.301,138.487z M256,17.067c20.181,0,42.667,45.56,42.667,110.933 c0,0.393-0.009,0.777-0.017,1.161c-0.111,0.12-0.222,0.247-0.333,0.367c-2.466,2.611-4.873,5.24-7.194,7.902 c-0.29,0.324-0.563,0.666-0.845,0.99c-3.277,3.789-6.4,7.612-9.378,11.477c-1.451,1.869-2.91,3.738-4.284,5.615 c-0.913,1.263-1.784,2.534-2.662,3.806c-0.973,1.374-1.988,2.756-2.91,4.139c-4.915-0.794-9.916-1.323-15.044-1.323 s-10.129,0.529-15.044,1.323c-7.757-11.597-17.015-23.1-27.605-34.295c-0.009-0.384-0.017-0.768-0.017-1.161 C213.333,62.626,235.819,17.067,256,17.067z M264.533,204.8c0,4.71-3.814,8.533-8.533,8.533c-23.526,0-42.667,19.14-42.667,42.667 c0,4.71-3.814,8.533-8.533,8.533s-8.533-3.823-8.533-8.533c0-32.939,26.803-59.733,59.733-59.733 C260.719,196.267,264.533,200.09,264.533,204.8z M88.081,130.193c-7.654-19.14-8.03-34.133-1.033-41.131 c3.337-3.336,8.474-5,15.019-5c7.202,0,16.094,2.014,26.121,6.033c21.743,8.695,45.705,25.464,67.473,47.232 c9.865,9.873,18.876,20.48,26.598,31.181c-24.994,9.677-44.791,29.713-54.153,54.861c-9.933-7.049-19.814-15.232-29.483-24.585 c-1.161-1.118-2.654-1.741-4.224-2.065C113.092,175.198,96.649,151.62,88.081,130.193z M17.067,256 c0-20.079,45.133-42.428,109.995-42.65c11.597,11.196,23.706,21.009,36.13,29.321c-0.623,4.369-1.058,8.789-1.058,13.329 c0,5.129,0.529,10.129,1.323,15.044c-1.425,0.956-2.85,1.997-4.275,2.995c-1.203,0.845-2.406,1.664-3.601,2.534 c-2.031,1.485-4.053,3.055-6.076,4.625c-3.686,2.85-7.322,5.837-10.931,8.943c-0.393,0.341-0.785,0.666-1.169,1.007 c-2.688,2.338-5.333,4.77-7.97,7.253c-0.094,0.085-0.188,0.162-0.273,0.247c-0.384,0.009-0.768,0.017-1.161,0.017 C62.626,298.667,17.067,276.181,17.067,256z M198.699,373.513c-1.015,1.05-2.005,2.125-3.038,3.166 c-21.769,21.769-45.73,38.545-67.473,47.241c-19.149,7.654-34.133,8.03-41.139,1.033c-6.997-6.997-6.622-21.999,1.033-41.139 c8.695-21.743,25.472-45.705,47.232-67.473c1.033-1.033,2.108-2.005,3.149-3.021c0.051-0.043,0.12-0.06,0.162-0.102 c5.495-5.316,11.059-10.257,16.657-14.839c0.495-0.401,0.99-0.811,1.493-1.203c2.039-1.647,4.079-3.208,6.127-4.753 c1.118-0.845,2.244-1.681,3.362-2.492c0.597-0.444,1.203-0.836,1.801-1.263c0.094,0.247,0.222,0.478,0.316,0.725 c0.904,2.364,1.903,4.668,2.987,6.929c0.401,0.853,0.794,1.707,1.22,2.543c0.947,1.826,1.971,3.601,3.029,5.359 c0.683,1.135,1.331,2.278,2.065,3.388c0.862,1.306,1.809,2.56,2.739,3.823c1.007,1.382,1.988,2.782,3.081,4.113 c0.486,0.597,1.041,1.135,1.545,1.724c1.493,1.732,2.953,3.482,4.582,5.103c1.553,1.562,3.234,2.953,4.89,4.395 c0.666,0.572,1.289,1.195,1.963,1.749c1.28,1.05,2.637,1.997,3.968,2.97c1.314,0.973,2.62,1.954,3.985,2.859 c1.067,0.7,2.167,1.331,3.268,1.988c1.792,1.084,3.601,2.133,5.47,3.098c0.811,0.41,1.638,0.794,2.466,1.186 c2.287,1.092,4.617,2.099,6.997,3.012c0.239,0.094,0.469,0.213,0.708,0.307c-0.41,0.572-0.794,1.152-1.212,1.732 c-0.717,0.998-1.476,1.988-2.219,2.987c-1.613,2.15-3.251,4.292-4.975,6.434c-0.367,0.469-0.751,0.93-1.126,1.391 c-4.642,5.683-9.643,11.324-15.019,16.887C198.75,373.41,198.741,373.47,198.699,373.513z M256,494.933 c-20.181,0-42.667-45.559-42.667-110.933c0-0.393,0.008-0.776,0.017-1.161c0.111-0.119,0.222-0.247,0.333-0.367 c2.466-2.611,4.872-5.239,7.194-7.902c0.29-0.324,0.563-0.666,0.845-0.99c3.277-3.789,6.4-7.612,9.378-11.477 c1.451-1.869,2.91-3.738,4.284-5.615c0.913-1.263,1.783-2.534,2.662-3.806c0.973-1.374,1.988-2.756,2.91-4.139 c4.915,0.794,9.916,1.323,15.044,1.323s10.129-0.529,15.044-1.323c0.93,1.399,1.954,2.79,2.935,4.181 c0.87,1.254,1.732,2.509,2.637,3.755c1.34,1.835,2.756,3.652,4.173,5.478c3.046,3.959,6.246,7.885,9.609,11.759 c0.23,0.273,0.452,0.546,0.691,0.819c2.338,2.671,4.753,5.316,7.228,7.936c0.111,0.128,0.222,0.247,0.333,0.367 c0.009,0.384,0.017,0.768,0.017,1.161C298.667,449.374,276.181,494.933,256,494.933z M423.919,383.812 c7.654,19.14,8.03,34.142,1.033,41.139s-21.99,6.622-41.139-1.033c-21.743-8.695-45.705-25.472-67.473-47.241 c-1.033-1.041-2.022-2.116-3.038-3.166c-0.043-0.043-0.051-0.102-0.094-0.145c-5.154-5.325-9.95-10.726-14.43-16.162 c-0.41-0.495-0.811-0.998-1.22-1.502c-1.647-2.031-3.226-4.062-4.77-6.101c-0.819-1.092-1.63-2.176-2.415-3.26 c-0.589-0.802-1.135-1.604-1.707-2.415c0.239-0.085,0.461-0.205,0.7-0.299c2.381-0.913,4.71-1.92,6.997-3.012 c0.828-0.393,1.655-0.777,2.466-1.186c1.869-0.964,3.678-2.014,5.47-3.098c1.101-0.657,2.202-1.289,3.268-1.988 c1.365-0.905,2.671-1.886,3.985-2.859c1.331-0.973,2.688-1.92,3.968-2.97c0.674-0.555,1.297-1.178,1.963-1.749 c1.655-1.442,3.336-2.833,4.89-4.395c1.638-1.63,3.106-3.388,4.608-5.129c0.495-0.58,1.041-1.109,1.519-1.698 c1.092-1.331,2.074-2.731,3.089-4.122c0.922-1.263,1.869-2.509,2.739-3.814c0.717-1.101,1.374-2.244,2.048-3.379 c1.058-1.758,2.091-3.541,3.038-5.376c0.427-0.828,0.819-1.673,1.22-2.526c1.084-2.27,2.091-4.591,2.995-6.963 c0.094-0.239,0.213-0.461,0.307-0.708c0.563,0.401,1.126,0.768,1.69,1.178c1.033,0.751,2.065,1.536,3.106,2.304 c2.099,1.587,4.207,3.191,6.306,4.873c0.495,0.401,0.99,0.811,1.485,1.212c5.666,4.625,11.298,9.617,16.853,14.993 c0.043,0.043,0.111,0.06,0.162,0.102c1.041,1.015,2.116,1.988,3.149,3.021C398.447,338.108,415.224,362.069,423.919,383.812z M384,298.667c-0.393,0-0.776-0.009-1.161-0.017c-0.085-0.077-0.171-0.154-0.247-0.23c-2.654-2.5-5.316-4.941-8.021-7.296 c-0.35-0.307-0.7-0.597-1.058-0.905c-3.584-3.098-7.202-6.059-10.854-8.9c-2.082-1.621-4.164-3.234-6.255-4.762 c-1.195-0.87-2.398-1.681-3.601-2.526c-1.417-0.99-2.833-2.039-4.258-2.987c0.794-4.915,1.323-9.916,1.323-15.044 s-0.529-10.129-1.323-15.044c1.417-0.947,2.833-1.988,4.258-2.987c1.195-0.836,2.398-1.655,3.592-2.526 c2.091-1.519,4.164-3.132,6.238-4.753c3.661-2.833,7.27-5.794,10.854-8.883c0.358-0.316,0.725-0.614,1.092-0.93 c2.697-2.355,5.359-4.796,8.013-7.296c0.077-0.077,0.162-0.154,0.247-0.23c0.384-0.009,0.768-0.017,1.161-0.017 c65.374,0,110.933,22.485,110.933,42.667S449.374,298.667,384,298.667z"/> </g> </g> </g>
</svg>